<?xml version="1.0" encoding="iso-8859-1"?>
<!-- Generator: Adobe Illustrator 19.0.0, SVG Export Plug-In . SVG Version: 6.00 Build 0)  -->
<svg version="1.1" id="Layer_1" xmlns="http://www.w3.org/2000/svg" xmlns:xlink="http://www.w3.org/1999/xlink" x="0px" y="0px"
	 viewBox="0 0 512 512" style="enable-background:new 0 0 512 512;" xml:space="preserve">
<g>
	<g>
		<path d="M495.304,478.609h-16.696V33.391h16.696c9.217,0,16.696-7.473,16.696-16.696C512,7.473,504.521,0,495.304,0h-33.391
			H50.087H16.696C7.479,0,0,7.473,0,16.696c0,9.223,7.479,16.696,16.696,16.696h16.696v445.217H16.696
			C7.479,478.609,0,486.082,0,495.304C0,504.527,7.479,512,16.696,512h33.391h411.826h33.391c9.217,0,16.696-7.473,16.696-16.696
			C512,486.082,504.521,478.609,495.304,478.609z M445.217,478.609H66.783v-66.783h36.468c6.915,19.391,25.275,33.391,47.01,33.391
			c21.736,0,40.095-14,47.01-33.391h247.946V478.609z M445.217,378.435H197.271c-6.915-19.391-25.275-33.391-47.01-33.391
			c-21.735,0-40.095,14-47.01,33.391H66.783V278.261h36.468c6.915,19.391,25.275,33.391,47.01,33.391
			c21.736,0,40.095-14,47.01-33.391h39.543c6.915,19.391,25.275,33.391,47.011,33.391c21.736,0,40.095-14,47.01-33.391h114.382
			V378.435z M445.217,244.87H330.837c-6.915-19.391-25.275-33.391-47.01-33.391c-21.736,0-40.095,14-47.011,33.391h-39.543
			c-6.915-19.391-25.275-33.391-47.01-33.391c-21.736,0-40.095,14-47.01,33.391H66.783V144.696h36.468
			c6.915,19.391,25.275,33.391,47.01,33.391c21.736,0,40.095-14,47.01-33.391h39.543c6.915,19.391,25.275,33.391,47.011,33.391
			c21.736,0,40.095-14,47.01-33.391h114.382V244.87z M445.217,111.304H330.837c-6.915-19.391-25.274-33.391-47.01-33.391
			c-21.737,0-40.095,14-47.011,33.391h-39.543c-6.917-19.391-25.275-33.391-47.012-33.391s-40.095,14-47.01,33.391H66.783V33.391
			h378.435V111.304z"/>
	</g>
</g>
<g>
</g>
<g>
</g>
<g>
</g>
<g>
</g>
<g>
</g>
<g>
</g>
<g>
</g>
<g>
</g>
<g>
</g>
<g>
</g>
<g>
</g>
<g>
</g>
<g>
</g>
<g>
</g>
<g>
</g>
</svg>
