<?xml version="1.0" encoding="iso-8859-1"?>
<!-- Generator: Adobe Illustrator 19.0.0, SVG Export Plug-In . SVG Version: 6.00 Build 0)  -->
<svg version="1.1" id="Layer_1" xmlns="http://www.w3.org/2000/svg" xmlns:xlink="http://www.w3.org/1999/xlink" x="0px" y="0px"
	 viewBox="0 0 512 512" style="enable-background:new 0 0 512 512;" xml:space="preserve">
<g>
	<g>
		<path d="M489.739,0H22.261C13.044,0,5.565,7.473,5.565,16.696v478.609c0,9.223,7.479,16.696,16.696,16.696h467.478
			c9.217,0,16.696-7.473,16.696-16.696V16.696C506.435,7.473,498.956,0,489.739,0z M104.195,78.179
			c6.01-7.005,16.533-7.815,23.543-1.81l28.088,24.076l28.086-24.076c7.022-6.016,17.554-5.185,23.543,1.81
			c6,7,5.196,17.538-1.804,23.538l-33.13,28.397v36.843c0,9.223-7.479,16.696-16.696,16.696c-9.217,0-16.696-7.473-16.696-16.696
			v-36.843L106,101.718C99,95.717,98.196,85.179,104.195,78.179z M189.217,445.217c-9.217,0-16.696-7.473-16.696-16.696
			c0-46.032-37.446-83.478-83.478-83.478c-9.217,0-16.696-7.473-16.696-16.696c0-9.223,7.479-16.696,16.696-16.696
			c64.445,0,116.87,52.429,116.87,116.87C205.913,437.744,198.435,445.217,189.217,445.217z M429.195,388.892
			c6.521,6.516,6.521,17.092,0,23.609c-3.261,3.261-7.533,4.892-11.804,4.892s-8.544-1.631-11.804-4.892L384,390.913l-21.587,21.587
			c-3.261,3.261-7.533,4.892-11.804,4.892s-8.544-1.631-11.804-4.892c-6.521-6.516-6.521-17.092,0-23.609l21.586-21.587
			l-21.587-21.587c-6.521-6.516-6.521-17.092,0-23.609c6.521-6.521,17.087-6.521,23.609,0L384,343.696l21.587-21.587
			c6.521-6.521,17.087-6.521,23.609,0c6.521,6.516,6.521,17.092,0,23.609l-21.587,21.587L429.195,388.892z M422.957,278.261H272.696
			v150.261c0,9.223-7.479,16.696-16.696,16.696c-9.217,0-16.696-7.473-16.696-16.696V278.261H89.044
			c-9.217,0-16.696-7.473-16.696-16.696c0-9.223,7.479-16.696,16.696-16.696h150.261V94.609c0-9.223,7.479-16.696,16.696-16.696
			c9.217,0,16.696,7.473,16.696,16.696V244.87h150.261c9.217,0,16.696,7.473,16.696,16.696
			C439.652,270.788,432.174,278.261,422.957,278.261z M422.957,211.478c-64.445,0-116.87-52.429-116.87-116.87
			c0-9.223,7.479-16.696,16.696-16.696c9.217,0,16.696,7.473,16.696,16.696c0,46.032,37.446,83.478,83.478,83.478
			c9.217,0,16.696,7.473,16.696,16.696C439.652,204.005,432.174,211.478,422.957,211.478z"/>
	</g>
</g>
<g>
</g>
<g>
</g>
<g>
</g>
<g>
</g>
<g>
</g>
<g>
</g>
<g>
</g>
<g>
</g>
<g>
</g>
<g>
</g>
<g>
</g>
<g>
</g>
<g>
</g>
<g>
</g>
<g>
</g>
</svg>
