<?xml version="1.0" encoding="iso-8859-1"?>
<!-- Generator: Adobe Illustrator 19.0.0, SVG Export Plug-In . SVG Version: 6.00 Build 0)  -->
<svg version="1.1" id="Layer_1" xmlns="http://www.w3.org/2000/svg" xmlns:xlink="http://www.w3.org/1999/xlink" x="0px" y="0px"
	 viewBox="0 0 512 512" style="enable-background:new 0 0 512 512;" xml:space="preserve">
<g>
	<g>
		<path d="M495.304,0H16.696C7.479,0,0,7.473,0,16.696v478.609C0,504.527,7.479,512,16.696,512h478.609
			c9.217,0,16.696-7.473,16.696-16.696V16.696C512,7.473,504.521,0,495.304,0z M183.652,411.826c9.217,0,16.696,7.473,16.696,16.696
			c0,9.223-7.479,16.696-16.696,16.696H116.87c-9.217,0-16.696-7.473-16.696-16.696V83.478c0-9.223,7.479-16.696,16.696-16.696
			h66.783c9.217,0,16.696,7.473,16.696,16.696s-7.479,16.696-16.696,16.696h-50.087v311.652H183.652z M411.826,428.522
			c0,9.223-7.479,16.696-16.696,16.696h-66.783c-9.217,0-16.696-7.473-16.696-16.696c0-9.223,7.479-16.696,16.696-16.696h50.087
			V100.174h-50.087c-9.217,0-16.696-7.473-16.696-16.696s7.479-16.696,16.696-16.696h66.783c9.217,0,16.696,7.473,16.696,16.696
			V428.522z"/>
	</g>
</g>
<g>
</g>
<g>
</g>
<g>
</g>
<g>
</g>
<g>
</g>
<g>
</g>
<g>
</g>
<g>
</g>
<g>
</g>
<g>
</g>
<g>
</g>
<g>
</g>
<g>
</g>
<g>
</g>
<g>
</g>
</svg>
