<?xml version="1.0" encoding="iso-8859-1"?>
<!-- Generator: Adobe Illustrator 19.0.0, SVG Export Plug-In . SVG Version: 6.00 Build 0)  -->
<svg version="1.1" id="Layer_1" xmlns="http://www.w3.org/2000/svg" xmlns:xlink="http://www.w3.org/1999/xlink" x="0px" y="0px"
	 viewBox="0 0 512 512" style="enable-background:new 0 0 512 512;" xml:space="preserve">
<g>
	<g>
		<path d="M489.739,0H22.261C13.044,0,5.565,7.473,5.565,16.696v478.609c0,9.223,7.479,16.696,16.696,16.696h467.478
			c9.217,0,16.696-7.473,16.696-16.696V16.696C506.435,7.473,498.956,0,489.739,0z M150.261,439.652c0,3.071-2.5,5.565-5.565,5.565
			H77.913c-3.065,0-5.565-2.494-5.565-5.565V372.87c0-3.071,2.5-5.565,5.565-5.565h66.783c3.065,0,5.565,2.494,5.565,5.565V439.652z
			 M150.261,294.957c0,3.071-2.5,5.565-5.565,5.565H77.913c-3.065,0-5.565-2.494-5.565-5.565v-66.783c0-3.071,2.5-5.565,5.565-5.565
			h66.783c3.065,0,5.565,2.494,5.565,5.565V294.957z M294.957,439.652c0,3.071-2.5,5.565-5.565,5.565h-66.783
			c-3.065,0-5.565-2.494-5.565-5.565V372.87c0-3.071,2.5-5.565,5.565-5.565h66.783c3.065,0,5.565,2.494,5.565,5.565V439.652z
			 M294.957,294.957c0,3.071-2.5,5.565-5.565,5.565h-66.783c-3.065,0-5.565-2.494-5.565-5.565v-66.783
			c0-3.071,2.5-5.565,5.565-5.565h66.783c3.065,0,5.565,2.494,5.565,5.565V294.957z M439.652,439.652c0,3.071-2.5,5.565-5.565,5.565
			h-66.783c-3.065,0-5.565-2.494-5.565-5.565V228.174c0-3.071,2.5-5.565,5.565-5.565h66.783c3.065,0,5.565,2.494,5.565,5.565
			V439.652z M439.652,139.13c0,9.223-7.479,16.696-16.696,16.696H89.044c-9.217,0-16.696-7.473-16.696-16.696V83.478
			c0-9.223,7.479-16.696,16.696-16.696h333.913c9.217,0,16.696,7.473,16.696,16.696V139.13z"/>
	</g>
</g>
<g>
</g>
<g>
</g>
<g>
</g>
<g>
</g>
<g>
</g>
<g>
</g>
<g>
</g>
<g>
</g>
<g>
</g>
<g>
</g>
<g>
</g>
<g>
</g>
<g>
</g>
<g>
</g>
<g>
</g>
</svg>
