<?xml version="1.0" encoding="iso-8859-1"?>
<!-- Generator: Adobe Illustrator 19.0.0, SVG Export Plug-In . SVG Version: 6.00 Build 0)  -->
<svg version="1.1" id="Layer_1" xmlns="http://www.w3.org/2000/svg" xmlns:xlink="http://www.w3.org/1999/xlink" x="0px" y="0px"
	 viewBox="0 0 512 512" style="enable-background:new 0 0 512 512;" xml:space="preserve">
<g>
	<g>
		<path d="M272.697,46.204V16.695C272.697,7.473,265.219,0,256.002,0c-9.217,0-16.695,7.473-16.695,16.695v29.509
			c-38.058,7.756-66.782,41.479-66.782,81.794c0,46.032,37.446,83.477,83.477,83.477c46.032,0,83.477-37.446,83.477-83.477
			C339.479,87.683,310.755,53.96,272.697,46.204z M256.002,178.085c-27.619,0-50.086-22.468-50.086-50.086
			c0-27.619,22.468-50.086,50.086-50.086s50.086,22.468,50.086,50.086C306.088,155.617,283.62,178.085,256.002,178.085z"/>
	</g>
</g>
<g>
	<g>
		<path d="M154.814,186.218L99.155,390.289c-3.522,12.908-1.804,26.412,4.837,38.038c3.761,6.574,8.954,11.945,15.004,16.141
			l-12.667,46.44c-2.424,8.891,2.815,18.07,11.717,20.5c1.467,0.402,2.945,0.592,4.402,0.592c7.337,0,14.075-4.881,16.098-12.31
			l12.663-46.423c20.945-1.573,39.004-16.086,44.597-36.614l47.065-172.574C205.191,239.842,172.953,217.613,154.814,186.218z"/>
	</g>
</g>
<g>
	<g>
		<path d="M408.055,428.328c6.641-11.625,8.222-25.13,4.883-38.038v0.006L357.23,186.22c-18.136,31.395-50.397,53.622-88.076,57.86
			l47.043,172.568c5.594,20.533,23.652,35.046,44.597,36.619l12.663,46.423c2.021,7.43,8.761,12.31,16.098,12.31
			c1.457,0,2.935-0.19,4.402-0.592c8.902-2.43,14.141-11.609,11.717-20.5l-12.667-46.438
			C399.056,440.274,404.294,434.903,408.055,428.328z"/>
	</g>
</g>
<g>
</g>
<g>
</g>
<g>
</g>
<g>
</g>
<g>
</g>
<g>
</g>
<g>
</g>
<g>
</g>
<g>
</g>
<g>
</g>
<g>
</g>
<g>
</g>
<g>
</g>
<g>
</g>
<g>
</g>
</svg>
