<?xml version="1.0" encoding="iso-8859-1"?>
<!-- Generator: Adobe Illustrator 19.0.0, SVG Export Plug-In . SVG Version: 6.00 Build 0)  -->
<svg version="1.1" id="Layer_1" xmlns="http://www.w3.org/2000/svg" xmlns:xlink="http://www.w3.org/1999/xlink" x="0px" y="0px"
	 viewBox="0 0 511.999 511.999" style="enable-background:new 0 0 511.999 511.999;" xml:space="preserve">
<g>
	<g>
		<path d="M429.891,419.269l-0.326-0.776c-3.295-7.666-9.744-15.9-19.52-23.788c-9.746-7.892-22.702-15.352-38.131-21.643
			c-30.865-12.626-71.512-20.539-115.913-20.517c-33.31-0.006-64.488,4.416-91.029,11.983
			c-26.541,7.532-48.403,18.317-63.018,30.176c-9.776,7.889-16.221,16.123-19.519,23.789l-0.326,0.776
			c-1.79,4.421-2.639,8.656-2.647,13.003c0.031,8.626,3.343,17.303,11.175,26.648c7.792,9.253,20.109,18.558,36.092,26.526
			c31.944,16.034,78.131,26.599,129.272,26.552c38.362,0.011,73.912-5.87,102.787-15.635c28.908-9.688,50.93-23.515,62.575-37.443
			c7.833-9.346,11.145-18.022,11.175-26.648C432.53,427.925,431.681,423.691,429.891,419.269z"/>
	</g>
</g>
<g>
	<g>
		<path d="M256.002,0L112.993,347.818c4.568-2.238,9.277-4.385,14.179-6.388c35.843-14.607,80.396-23.029,128.83-23.051
			c36.318,0.005,70.47,4.772,100.387,13.288c15.441,4.415,29.703,9.839,42.63,16.178L256.002,0z"/>
	</g>
</g>
<g>
</g>
<g>
</g>
<g>
</g>
<g>
</g>
<g>
</g>
<g>
</g>
<g>
</g>
<g>
</g>
<g>
</g>
<g>
</g>
<g>
</g>
<g>
</g>
<g>
</g>
<g>
</g>
<g>
</g>
</svg>
