<?xml version="1.0" encoding="iso-8859-1"?>
<!-- Generator: Adobe Illustrator 19.0.0, SVG Export Plug-In . SVG Version: 6.00 Build 0)  -->
<svg version="1.1" id="Layer_1" xmlns="http://www.w3.org/2000/svg" xmlns:xlink="http://www.w3.org/1999/xlink" x="0px" y="0px"
	 viewBox="0 0 511.999 511.999" style="enable-background:new 0 0 511.999 511.999;" xml:space="preserve">
<g>
	<g>
		<path d="M418.554,52.186c-7.665-9.104-19.782-18.253-35.495-26.085C351.655,10.337,306.261-0.046,256,0
			c-37.706-0.011-72.647,5.768-101.03,15.368c-28.416,9.523-50.068,23.116-61.527,36.818c-7.709,9.197-10.972,17.743-11.002,26.245
			c0.03,8.501,3.294,17.047,11.002,26.244c7.666,9.104,19.782,18.253,35.495,26.085c31.404,15.764,76.799,26.146,127.063,26.101
			c37.704,0.011,72.644-5.769,101.027-15.368c28.416-9.523,50.068-23.116,61.527-36.818c7.709-9.197,10.972-17.743,11.002-26.244
			C429.527,69.929,426.263,61.382,418.554,52.186z"/>
	</g>
</g>
<g>
	<g>
		<path d="M418.554,407.323c-7.665-9.104-19.782-18.253-35.495-26.085c-31.404-15.764-76.799-26.146-127.059-26.101
			c-37.706-0.011-72.647,5.769-101.03,15.368c-28.416,9.523-50.068,23.116-61.527,36.818c-7.709,9.197-10.972,17.743-11.002,26.245
			c0.03,8.501,3.294,17.047,11.002,26.244c7.665,9.104,19.782,18.253,35.495,26.085c31.404,15.764,76.799,26.146,127.063,26.101
			c37.704,0.011,72.644-5.769,101.027-15.368c28.416-9.523,50.068-23.116,61.527-36.818c7.709-9.197,10.972-17.743,11.002-26.244
			C429.527,425.067,426.263,416.52,418.554,407.323z"/>
	</g>
</g>
<g>
	<g>
		<path d="M429.557,140.208c-9.179,7.622-19.429,14.468-31.304,20.421c-37.451,18.666-86.924,29.577-141.734,29.624
			c-41.1-0.011-78.852-6.21-111.2-17.124c-24.361-8.285-49.675-19.119-60.805-32.702v231.367
			c11.13-7.623,18.651-14.468,30.526-20.421c37.451-18.666,86.148-29.577,140.96-29.624c41.098,0.011,79.366,6.21,111.715,17.124
			c24.365,8.287,45.462,19.119,61.843,32.702V140.208H429.557z"/>
	</g>
</g>
<g>
</g>
<g>
</g>
<g>
</g>
<g>
</g>
<g>
</g>
<g>
</g>
<g>
</g>
<g>
</g>
<g>
</g>
<g>
</g>
<g>
</g>
<g>
</g>
<g>
</g>
<g>
</g>
<g>
</g>
</svg>
