<?xml version="1.0" encoding="iso-8859-1"?>
<!-- Generator: Adobe Illustrator 19.0.0, SVG Export Plug-In . SVG Version: 6.00 Build 0)  -->
<svg version="1.1" id="Layer_1" xmlns="http://www.w3.org/2000/svg" xmlns:xlink="http://www.w3.org/1999/xlink" x="0px" y="0px"
	 viewBox="0 0 512 512" style="enable-background:new 0 0 512 512;" xml:space="preserve">
<g>
	<g>
		<path d="M256,339.496c-9.208,0-16.699,7.491-16.699,16.699c0,9.208,7.491,16.699,16.699,16.699
			c9.208,0,16.699-7.491,16.699-16.699C272.699,346.988,265.208,339.496,256,339.496z"/>
	</g>
</g>
<g>
	<g>
		<path d="M256,0C114.844,0,0,114.839,0,256s114.844,256,256,256s256-114.839,256-256S397.156,0,256,0z M256,105.706
			c27.625,0,50.098,22.473,50.098,50.098S283.625,205.902,256,205.902s-50.098-22.473-50.098-50.098S228.375,105.706,256,105.706z
			 M256,406.294c-27.625,0-50.098-22.473-50.098-50.098s22.473-50.098,50.098-50.098s50.098,22.473,50.098,50.098
			S283.625,406.294,256,406.294z M389.594,272.699H122.406c-9.219,0-16.699-7.475-16.699-16.699s7.48-16.699,16.699-16.699h267.189
			c9.219,0,16.699,7.475,16.699,16.699S398.813,272.699,389.594,272.699z"/>
	</g>
</g>
<g>
	<g>
		<path d="M256,139.105c-9.208,0-16.699,7.491-16.699,16.699c0,9.208,7.491,16.699,16.699,16.699
			c9.208,0,16.699-7.491,16.699-16.699C272.699,146.596,265.208,139.105,256,139.105z"/>
	</g>
</g>
<g>
</g>
<g>
</g>
<g>
</g>
<g>
</g>
<g>
</g>
<g>
</g>
<g>
</g>
<g>
</g>
<g>
</g>
<g>
</g>
<g>
</g>
<g>
</g>
<g>
</g>
<g>
</g>
<g>
</g>
</svg>
