<?xml version="1.0" encoding="iso-8859-1"?>
<!-- Generator: Adobe Illustrator 19.0.0, SVG Export Plug-In . SVG Version: 6.00 Build 0)  -->
<svg version="1.1" id="Layer_1" xmlns="http://www.w3.org/2000/svg" xmlns:xlink="http://www.w3.org/1999/xlink" x="0px" y="0px"
	 viewBox="0 0 512 512" style="enable-background:new 0 0 512 512;" xml:space="preserve">
<g>
	<g>
		<path d="M256,0C114.844,0,0,114.839,0,256s114.844,256,256,256s256-114.839,256-256S397.156,0,256,0z M356.196,239.301
			c9.219,0,16.699,7.475,16.699,16.699s-7.48,16.699-16.699,16.699H140.787c7.757,38.067,41.49,66.797,81.814,66.797h133.594
			c9.219,0,16.699,7.475,16.699,16.699c0,9.225-7.48,16.699-16.699,16.699H222.601c-64.459,0-116.895-52.44-116.895-116.895
			s52.436-116.895,116.895-116.895h133.594c9.219,0,16.699,7.475,16.699,16.699s-7.48,16.699-16.699,16.699H222.601
			c-40.324,0-74.057,28.731-81.814,66.797H356.196z"/>
	</g>
</g>
<g>
</g>
<g>
</g>
<g>
</g>
<g>
</g>
<g>
</g>
<g>
</g>
<g>
</g>
<g>
</g>
<g>
</g>
<g>
</g>
<g>
</g>
<g>
</g>
<g>
</g>
<g>
</g>
<g>
</g>
</svg>
