<?xml version="1.0" encoding="iso-8859-1"?>
<!-- Generator: Adobe Illustrator 19.0.0, SVG Export Plug-In . SVG Version: 6.00 Build 0)  -->
<svg version="1.1" id="Layer_1" xmlns="http://www.w3.org/2000/svg" xmlns:xlink="http://www.w3.org/1999/xlink" x="0px" y="0px"
	 viewBox="0 0 512 512" style="enable-background:new 0 0 512 512;" xml:space="preserve">
<g>
	<g>
		<path d="M256,0C114.844,0,0,114.839,0,256s114.844,256,256,256s256-114.839,256-256S397.156,0,256,0z M350.629,368.442H150.238
			c-9.219,0-16.699-7.475-16.699-16.699c0-9.225,7.48-16.699,16.699-16.699h200.391c9.219,0,16.699,7.475,16.699,16.699
			C367.329,360.967,359.848,368.442,350.629,368.442z M365.426,214.252L226.265,306.56c-2.838,1.886-6.045,2.783-9.219,2.783
			c-5.404,0-10.709-2.621-13.927-7.469c-5.099-7.686-3-18.047,4.686-23.146l118.177-78.392l-118.177-78.392
			c-7.686-5.099-9.785-15.46-4.686-23.146c5.121-7.703,15.492-9.779,23.146-4.686l139.161,92.308
			c4.664,3.093,7.469,8.317,7.469,13.916C372.895,205.934,370.09,211.159,365.426,214.252z"/>
	</g>
</g>
<g>
</g>
<g>
</g>
<g>
</g>
<g>
</g>
<g>
</g>
<g>
</g>
<g>
</g>
<g>
</g>
<g>
</g>
<g>
</g>
<g>
</g>
<g>
</g>
<g>
</g>
<g>
</g>
<g>
</g>
</svg>
