<?xml version="1.0" encoding="iso-8859-1"?>
<!-- Generator: Adobe Illustrator 19.0.0, SVG Export Plug-In . SVG Version: 6.00 Build 0)  -->
<svg version="1.1" id="Layer_1" xmlns="http://www.w3.org/2000/svg" xmlns:xlink="http://www.w3.org/1999/xlink" x="0px" y="0px"
	 viewBox="0 0 512 512" style="enable-background:new 0 0 512 512;" xml:space="preserve">
<g>
	<g>
		<path d="M256,0C114.844,0,0,114.839,0,256s114.844,256,256,256s256-114.839,256-256S397.156,0,256,0z M389.594,372.895H122.406
			c-9.219,0-16.699-7.475-16.699-16.699c0-9.225,7.48-16.699,16.699-16.699h267.189c9.219,0,16.699,7.475,16.699,16.699
			C406.294,365.42,398.813,372.895,389.594,372.895z M389.594,272.699H122.406c-9.219,0-16.699-7.475-16.699-16.699
			s7.48-16.699,16.699-16.699h267.189c9.219,0,16.699,7.475,16.699,16.699S398.813,272.699,389.594,272.699z M389.594,172.504
			H122.406c-9.219,0-16.699-7.475-16.699-16.699s7.48-16.699,16.699-16.699h267.189c9.219,0,16.699,7.475,16.699,16.699
			S398.813,172.504,389.594,172.504z"/>
	</g>
</g>
<g>
</g>
<g>
</g>
<g>
</g>
<g>
</g>
<g>
</g>
<g>
</g>
<g>
</g>
<g>
</g>
<g>
</g>
<g>
</g>
<g>
</g>
<g>
</g>
<g>
</g>
<g>
</g>
<g>
</g>
</svg>
