<?xml version="1.0" encoding="iso-8859-1"?>
<!-- Generator: Adobe Illustrator 19.0.0, SVG Export Plug-In . SVG Version: 6.00 Build 0)  -->
<svg version="1.1" id="Layer_1" xmlns="http://www.w3.org/2000/svg" xmlns:xlink="http://www.w3.org/1999/xlink" x="0px" y="0px"
	 viewBox="0 0 512 512" style="enable-background:new 0 0 512 512;" xml:space="preserve">
<g>
	<g>
		<path d="M256,0C114.844,0,0,114.839,0,256s114.844,256,256,256s256-114.839,256-256S397.156,0,256,0z M146.574,186.42
			l139.161-92.308c7.654-5.093,18.025-3.017,23.146,4.686c5.099,7.686,3,18.047-4.686,23.146l-118.177,78.392l118.177,78.392
			c7.686,5.099,9.785,15.46,4.686,23.146c-3.219,4.848-8.523,7.469-13.927,7.469c-3.175,0-6.381-0.897-9.219-2.783l-139.161-92.308
			c-4.664-3.093-7.469-8.317-7.469-13.916C139.105,194.737,141.911,189.512,146.574,186.42z M356.196,372.895H155.804
			c-9.219,0-16.699-7.475-16.699-16.699c0-9.225,7.48-16.699,16.699-16.699h200.391c9.219,0,16.699,7.475,16.699,16.699
			C372.895,365.42,365.415,372.895,356.196,372.895z"/>
	</g>
</g>
<g>
</g>
<g>
</g>
<g>
</g>
<g>
</g>
<g>
</g>
<g>
</g>
<g>
</g>
<g>
</g>
<g>
</g>
<g>
</g>
<g>
</g>
<g>
</g>
<g>
</g>
<g>
</g>
<g>
</g>
</svg>
