<?xml version="1.0" encoding="iso-8859-1"?>
<!-- Generator: Adobe Illustrator 19.0.0, SVG Export Plug-In . SVG Version: 6.00 Build 0)  -->
<svg version="1.1" id="Layer_1" xmlns="http://www.w3.org/2000/svg" xmlns:xlink="http://www.w3.org/1999/xlink" x="0px" y="0px"
	 viewBox="0 0 512 512" style="enable-background:new 0 0 512 512;" xml:space="preserve">
<g>
	<g>
		<path d="M489.739,0H22.261C13.044,0,5.565,7.473,5.565,16.696v294.956h500.87V16.696C506.435,7.473,498.956,0,489.739,0z
			 M161.391,250.435c0,9.223-7.479,16.696-16.696,16.696h-44.522c-9.217,0-16.696-7.473-16.696-16.696V72.348
			c0-9.223,7.479-16.696,16.696-16.696h44.522c9.217,0,16.696,7.473,16.696,16.696V250.435z M294.957,250.435
			c0,9.223-7.479,16.696-16.696,16.696h-44.522c-9.217,0-16.696-7.473-16.696-16.696V105.739c0-9.223,7.479-16.696,16.696-16.696
			h44.522c9.217,0,16.696,7.473,16.696,16.696V250.435z M428.522,250.435c0,9.223-7.479,16.696-16.696,16.696h-44.522
			c-9.217,0-16.696-7.473-16.696-16.696v-77.913c0-9.223,7.479-16.696,16.696-16.696h44.522c9.217,0,16.696,7.473,16.696,16.696
			V250.435z"/>
	</g>
</g>
<g>
	<g>
		<path d="M5.565,345.043v50.087c0,9.223,7.479,16.696,16.696,16.696h183.652v66.783h-61.217c-9.217,0-16.696,7.473-16.696,16.696
			c0,9.223,7.479,16.696,16.696,16.696h77.913h66.783h77.913c9.217,0,16.696-7.473,16.696-16.696
			c0-9.223-7.479-16.696-16.696-16.696h-61.217v-66.783h183.652c9.217,0,16.696-7.473,16.696-16.696v-50.087H5.565z"/>
	</g>
</g>
<g>
</g>
<g>
</g>
<g>
</g>
<g>
</g>
<g>
</g>
<g>
</g>
<g>
</g>
<g>
</g>
<g>
</g>
<g>
</g>
<g>
</g>
<g>
</g>
<g>
</g>
<g>
</g>
<g>
</g>
</svg>
