<?xml version="1.0" encoding="iso-8859-1"?>
<!-- Generator: Adobe Illustrator 19.0.0, SVG Export Plug-In . SVG Version: 6.00 Build 0)  -->
<svg version="1.1" id="Layer_1" xmlns="http://www.w3.org/2000/svg" xmlns:xlink="http://www.w3.org/1999/xlink" x="0px" y="0px"
	 viewBox="0 0 512 512" style="enable-background:new 0 0 512 512;" xml:space="preserve">
<g>
	<g>
		<polygon points="283.826,0 283.826,146.021 333.913,85.918 384,146.021 384,0 		"/>
	</g>
</g>
<g>
	<g>
		<path d="M55.652,0c-9.217,0-16.696,7.473-16.696,16.696v478.609c0,9.223,7.479,16.696,16.696,16.696h50.087V0H55.652z"/>
	</g>
</g>
<g>
	<g>
		<path d="M456.348,0h-5.565h-11.13h-22.261v146.021c0,14.06-8.804,26.608-22.022,31.397c-3.718,1.348-7.56,1.995-11.364,1.995
			c-9.722,0-19.184-4.25-25.658-12.016l-24.435-29.32l-24.435,29.321c-6.468,7.767-15.934,12.016-25.658,12.016
			c-3.804,0-7.647-0.647-11.364-1.995c-13.217-4.788-22.022-17.338-22.022-31.398V0h-22.261H139.13v512h317.217
			c9.217,0,16.696-7.473,16.696-16.696V16.696C473.043,7.473,465.565,0,456.348,0z M221.935,311.652h133.565
			c9.217,0,16.696,7.473,16.696,16.696c0,9.223-7.479,16.696-16.696,16.696H221.935c-9.217,0-16.696-7.473-16.696-16.696
			C205.24,319.125,212.717,311.652,221.935,311.652z M388.892,411.826H188.544c-9.217,0-16.696-7.473-16.696-16.696
			s7.479-16.696,16.696-16.696h200.348c9.217,0,16.696,7.473,16.696,16.696S398.109,411.826,388.892,411.826z"/>
	</g>
</g>
<g>
</g>
<g>
</g>
<g>
</g>
<g>
</g>
<g>
</g>
<g>
</g>
<g>
</g>
<g>
</g>
<g>
</g>
<g>
</g>
<g>
</g>
<g>
</g>
<g>
</g>
<g>
</g>
<g>
</g>
</svg>
