<?xml version="1.0" encoding="iso-8859-1"?>
<!-- Generator: Adobe Illustrator 19.0.0, SVG Export Plug-In . SVG Version: 6.00 Build 0)  -->
<svg version="1.1" id="Layer_1" xmlns="http://www.w3.org/2000/svg" xmlns:xlink="http://www.w3.org/1999/xlink" x="0px" y="0px"
	 viewBox="0 0 512 512" style="enable-background:new 0 0 512 512;" xml:space="preserve">
<g>
	<g>
		<path d="M155.826,345.038c-9.213,0-16.696,7.483-16.696,16.696c0,9.213,7.483,16.696,16.696,16.696s16.696-7.483,16.696-16.696
			C172.522,352.521,165.039,345.038,155.826,345.038z"/>
	</g>
</g>
<g>
	<g>
		<path d="M322.783,0H189.217c-9.22,0-16.696,7.475-16.696,16.696v33.391c0,9.22,7.475,16.696,16.696,16.696h133.565
			c9.22,0,16.696-7.475,16.696-16.696V16.696C339.478,7.475,332.003,0,322.783,0z"/>
	</g>
</g>
<g>
	<g>
		<path d="M456.348,22.261H372.87v50.087c0,9.219-7.476,16.696-16.696,16.696H155.826c-9.219,0-16.696-7.476-16.696-16.696V22.261
			H55.652c-9.219,0-16.696,7.477-16.696,16.696v456.348c0,9.219,7.476,16.696,16.696,16.696h400.696
			c9.219,0,16.696-7.476,16.696-16.696V38.957C473.043,29.738,465.567,22.261,456.348,22.261z M110.631,173.195
			c-6.521-6.521-6.521-17.086,0-23.608c6.521-6.521,17.086-6.521,23.608,0l21.588,21.587l21.587-21.587
			c6.521-6.521,17.086-6.521,23.608,0c6.521,6.521,6.521,17.086,0,23.608l-21.587,21.587l21.587,21.588
			c6.521,6.521,6.521,17.086,0,23.608c-3.259,3.262-7.533,4.892-11.804,4.892s-8.545-1.63-11.804-4.892l-21.587-21.587
			l-21.588,21.589c-3.259,3.261-7.533,4.891-11.804,4.891s-8.545-1.63-11.804-4.892c-6.521-6.521-6.521-17.086,0-23.608
			l21.587-21.587L110.631,173.195z M155.826,411.826c-27.618,0-50.087-22.469-50.087-50.087s22.469-50.087,50.087-50.087
			c27.618,0,50.087,22.469,50.087,50.087S183.444,411.826,155.826,411.826z M389.565,378.435H256
			c-9.229,0-16.696-7.466-16.696-16.696s7.466-16.696,16.696-16.696h133.565c9.229,0,16.696,7.466,16.696,16.696
			S398.795,378.435,389.565,378.435z M389.565,211.478H256c-9.229,0-16.696-7.466-16.696-16.696s7.466-16.696,16.696-16.696h133.565
			c9.229,0,16.696,7.466,16.696,16.696C406.261,204.012,398.795,211.478,389.565,211.478z"/>
	</g>
</g>
<g>
</g>
<g>
</g>
<g>
</g>
<g>
</g>
<g>
</g>
<g>
</g>
<g>
</g>
<g>
</g>
<g>
</g>
<g>
</g>
<g>
</g>
<g>
</g>
<g>
</g>
<g>
</g>
<g>
</g>
</svg>
