<?xml version="1.0" encoding="iso-8859-1"?>
<!-- Generator: Adobe Illustrator 19.0.0, SVG Export Plug-In . SVG Version: 6.00 Build 0)  -->
<svg version="1.1" id="Layer_1" xmlns="http://www.w3.org/2000/svg" xmlns:xlink="http://www.w3.org/1999/xlink" x="0px" y="0px"
	 viewBox="0 0 511.999 511.999" style="enable-background:new 0 0 511.999 511.999;" xml:space="preserve">
<g>
	<g>
		<path d="M489.739,0H22.26C13.04,0,5.565,7.475,5.565,16.696v33.391c0,9.22,7.475,16.696,16.696,16.696h467.478
			c9.22,0,16.696-7.475,16.696-16.696V16.696C506.434,7.475,498.959,0,489.739,0z"/>
	</g>
</g>
<g>
	<g>
		<path d="M255.999,256.001c-9.22-0.001-16.696-7.476-16.696-16.697v-58.843c-26.657,7.578-45.99,32.756-44.434,62.15
			c1.642,31.023,26.765,56.161,57.787,57.821c29.404,1.574,54.603-17.761,62.185-44.432H255.999z"/>
	</g>
</g>
<g>
	<g>
		<path d="M312.317,215.334c-0.128-0.299-0.29-0.58-0.421-0.876c-0.829-1.854-1.747-3.659-2.75-5.412
			c-0.375-0.658-0.78-1.294-1.179-1.938c-0.85-1.369-1.752-2.706-2.714-4c-0.463-0.624-0.91-1.26-1.396-1.869
			c-1.402-1.76-2.875-3.46-4.457-5.053c-0.092-0.091-0.179-0.18-0.272-0.272c-1.598-1.587-3.305-3.065-5.068-4.47
			c-0.589-0.47-1.204-0.905-1.81-1.355c-1.318-0.981-2.68-1.9-4.076-2.766c-0.63-0.392-1.258-0.787-1.902-1.156
			c-1.774-1.014-3.597-1.946-5.475-2.783c-0.277-0.124-0.541-0.275-0.82-0.395c-2.345-1.003-4.781-1.832-7.263-2.544
			c-0.009,0.007-0.011,0.008-0.02,0.015v42.149h42.146c0.008-0.01,0.009-0.012,0.017-0.022
			C314.146,220.108,313.319,217.677,312.317,215.334z"/>
	</g>
</g>
<g>
	<g>
		<path d="M38.956,100.174v261.565c0,9.22,7.475,16.696,16.696,16.696h183.652v36.468c-20.196,7.201-34.544,26.818-33.318,49.735
			c1.332,24.899,21.189,45.285,46.049,47.208c29.401,2.275,54.052-21.002,54.052-49.932c0-21.737-14-40.096-33.391-47.01v-36.468
			h183.652c9.22,0,16.696-7.475,16.696-16.696V100.174H38.956z M272.557,464.089c-0.945,7.434-6.948,13.437-14.382,14.382
			c-10.907,1.386-20.118-7.827-18.733-18.733c0.945-7.434,6.948-13.437,14.382-14.382
			C264.731,443.971,273.943,453.183,272.557,464.089z M350.506,243.725c-2.221,48.532-41.514,87.842-90.044,90.084
			c-55.663,2.571-101.517-43.262-98.97-98.927c2.222-48.531,41.515-87.841,90.045-90.084
			C307.201,142.227,353.055,188.06,350.506,243.725z"/>
	</g>
</g>
<g>
</g>
<g>
</g>
<g>
</g>
<g>
</g>
<g>
</g>
<g>
</g>
<g>
</g>
<g>
</g>
<g>
</g>
<g>
</g>
<g>
</g>
<g>
</g>
<g>
</g>
<g>
</g>
<g>
</g>
</svg>
