<?xml version="1.0" encoding="iso-8859-1"?>
<!-- Generator: Adobe Illustrator 19.0.0, SVG Export Plug-In . SVG Version: 6.00 Build 0)  -->
<svg version="1.1" id="Layer_1" xmlns="http://www.w3.org/2000/svg" xmlns:xlink="http://www.w3.org/1999/xlink" x="0px" y="0px"
	 viewBox="0 0 512 512" style="enable-background:new 0 0 512 512;" xml:space="preserve">
<g>
	<g>
		<path d="M489.734,0H22.266C13.046,0,5.571,7.475,5.571,16.695v33.391c0,9.22,7.475,16.695,16.695,16.695h467.468
			c9.22,0,16.695-7.475,16.695-16.695V16.695C506.429,7.475,498.954,0,489.734,0z"/>
	</g>
</g>
<g>
	<g>
		<path d="M489.734,300.515H22.266c-9.22,0-16.695,7.475-16.695,16.695v33.391c0,9.22,7.475,16.695,16.695,16.695h217.039v55.553
			L99.438,479.831c-8.532,3.478-12.641,13.223-9.152,21.761c3.467,8.544,13.206,12.657,21.761,9.162L256,452.104l143.953,58.651
			c2.065,0.843,4.196,1.239,6.293,1.239c6.587,0,12.836-3.923,15.466-10.402c3.489-8.538-0.62-18.282-9.152-21.761l-139.866-56.982
			v-55.552h217.039c9.22,0,16.695-7.475,16.695-16.695v-33.391C506.429,307.99,498.955,300.515,489.734,300.515z"/>
	</g>
</g>
<g>
	<g>
		<rect x="38.967" y="100.172" width="434.078" height="166.953"/>
	</g>
</g>
<g>
</g>
<g>
</g>
<g>
</g>
<g>
</g>
<g>
</g>
<g>
</g>
<g>
</g>
<g>
</g>
<g>
</g>
<g>
</g>
<g>
</g>
<g>
</g>
<g>
</g>
<g>
</g>
<g>
</g>
</svg>
