<?xml version="1.0" encoding="iso-8859-1"?>
<!-- Generator: Adobe Illustrator 19.0.0, SVG Export Plug-In . SVG Version: 6.00 Build 0)  -->
<svg version="1.1" id="Layer_1" xmlns="http://www.w3.org/2000/svg" xmlns:xlink="http://www.w3.org/1999/xlink" x="0px" y="0px"
	 viewBox="0 0 512 512" style="enable-background:new 0 0 512 512;" xml:space="preserve">
<g>
	<g>
		<path d="M489.739,0H22.261C13.044,0,5.565,7.473,5.565,16.696v478.609c0,9.223,7.479,16.696,16.696,16.696h467.478
			c9.217,0,16.696-7.473,16.696-16.696V16.696C506.435,7.473,498.956,0,489.739,0z M434.375,373.862l-49.734,49.735
			c-3.261,3.261-7.533,4.892-11.804,4.892s-8.544-1.631-11.804-4.892c-6.521-6.516-6.521-17.092,0-23.609l21.553-21.554H261.565
			v50.087c0,9.223-7.479,16.696-16.696,16.696s-16.696-7.473-16.696-16.696v-50.087H89.044c-9.217,0-16.696-7.473-16.696-16.696
			c0-9.223,7.479-16.696,16.696-16.696h139.13v-34.888c-68.858-11.271-122.435-91.081-122.435-187.72
			c0-9.223,7.479-16.696,16.696-16.696c9.217,0,16.696,7.473,16.696,16.696c0,77.532,38.663,141.833,89.043,153.69V118.217
			l-21.587,21.587c-6.521,6.521-17.087,6.521-23.609,0c-6.521-6.516-6.521-17.092,0-23.609l50.087-50.087
			c6.521-6.521,17.087-6.521,23.609,0l50.609,50.609c6.521,6.516,6.521,17.092,0,23.609c-3.261,3.261-7.533,4.892-11.804,4.892
			s-8.544-1.631-11.804-4.892l-22.109-22.109v157.907c50.381-11.857,89.043-76.158,89.043-153.69
			c0-9.223,7.479-16.696,16.696-16.696c9.217,0,16.696,7.473,16.696,16.696c0,96.639-53.576,176.45-122.435,187.72v34.888h121.087
			l-22.142-22.142c-6.521-6.516-6.521-17.092,0-23.609c6.521-6.521,17.087-6.521,23.609,0l50.609,50.609l0.006,0.008
			c3.039,3.024,4.919,7.205,4.919,11.829C439.652,366.53,437.609,370.818,434.375,373.862z"/>
	</g>
</g>
<g>
</g>
<g>
</g>
<g>
</g>
<g>
</g>
<g>
</g>
<g>
</g>
<g>
</g>
<g>
</g>
<g>
</g>
<g>
</g>
<g>
</g>
<g>
</g>
<g>
</g>
<g>
</g>
<g>
</g>
</svg>
