<?xml version="1.0" encoding="iso-8859-1"?>
<!-- Generator: Adobe Illustrator 19.0.0, SVG Export Plug-In . SVG Version: 6.00 Build 0)  -->
<svg version="1.1" id="Layer_1" xmlns="http://www.w3.org/2000/svg" xmlns:xlink="http://www.w3.org/1999/xlink" x="0px" y="0px"
	 viewBox="0 0 512 512" style="enable-background:new 0 0 512 512;" xml:space="preserve">
<g>
	<g>
		<path d="M495.304,0H16.696C7.479,0,0,7.473,0,16.696v478.609C0,504.527,7.479,512,16.696,512h478.609
			c9.217,0,16.696-7.473,16.696-16.696V16.696C512,7.473,504.521,0,495.304,0z M196.206,423.081
			c6.076,6.934,5.38,17.484-1.544,23.56c-3.174,2.777-7.098,4.142-11,4.142c-4.641,0-9.26-1.924-12.565-5.69
			c-94.511-107.799-94.511-270.386,0-378.184c6.087-6.934,16.609-7.63,23.565-1.549c6.924,6.076,7.62,16.625,1.544,23.56
			C112.696,184.169,112.696,327.831,196.206,423.081z M340.902,445.093c-3.305,3.767-7.924,5.69-12.565,5.69
			c-3.902,0-7.826-1.365-11-4.142c-6.924-6.076-7.62-16.625-1.544-23.56c83.51-95.25,83.51-238.913,0-334.163
			c-6.076-6.934-5.38-17.484,1.544-23.56c6.945-6.082,17.489-5.386,23.565,1.549C435.413,174.707,435.413,337.293,340.902,445.093z"
			/>
	</g>
</g>
<g>
</g>
<g>
</g>
<g>
</g>
<g>
</g>
<g>
</g>
<g>
</g>
<g>
</g>
<g>
</g>
<g>
</g>
<g>
</g>
<g>
</g>
<g>
</g>
<g>
</g>
<g>
</g>
<g>
</g>
</svg>
