<?xml version="1.0" encoding="iso-8859-1"?>
<!-- Generator: Adobe Illustrator 19.0.0, SVG Export Plug-In . SVG Version: 6.00 Build 0)  -->
<svg version="1.1" id="Layer_1" xmlns="http://www.w3.org/2000/svg" xmlns:xlink="http://www.w3.org/1999/xlink" x="0px" y="0px"
	 viewBox="0 0 512 512" style="enable-background:new 0 0 512 512;" xml:space="preserve">
<g>
	<g>
		<path d="M460.8,341.017c-9.422,0-17.067-7.639-17.067-17.067c0-9.428,7.645-17.067,17.067-17.067h50.566
			c-3.822-57.762-26.875-110.317-62.817-151.355l-35.673,35.673c-3.334,3.334-7.701,5-12.066,5s-8.734-1.667-12.066-5
			c-6.666-6.661-6.666-17.472,0-24.133l35.673-35.673c-41.04-35.94-93.595-58.988-151.351-62.812v50.566
			c0,9.428-7.645,17.067-17.067,17.067s-17.067-7.639-17.067-17.067V68.583c-57.756,3.824-110.311,26.873-151.349,62.814
			l35.673,35.669c6.666,6.661,6.666,17.467,0,24.133c-3.334,3.334-7.7,5.001-12.066,5.001s-8.734-1.667-12.066-5.001l-35.673-35.669
			C27.51,196.569,4.457,249.126,0.635,306.884H51.2c9.422,0,17.067,7.639,17.067,17.067c0,9.428-7.645,17.067-17.067,17.067H0
			v85.333c0,9.428,7.645,17.067,17.067,17.067h477.867c9.422,0,17.067-7.639,17.067-17.067v-85.333H460.8z M392.533,341.017H119.467
			c-9.422,0-17.067-7.639-17.067-17.067c0-84.695,68.9-153.6,153.6-153.6s153.6,68.906,153.6,153.6
			C409.6,333.378,401.955,341.017,392.533,341.017z"/>
	</g>
</g>
<g>
</g>
<g>
</g>
<g>
</g>
<g>
</g>
<g>
</g>
<g>
</g>
<g>
</g>
<g>
</g>
<g>
</g>
<g>
</g>
<g>
</g>
<g>
</g>
<g>
</g>
<g>
</g>
<g>
</g>
</svg>
