<?xml version="1.0" encoding="iso-8859-1"?>
<!-- Generator: Adobe Illustrator 19.0.0, SVG Export Plug-In . SVG Version: 6.00 Build 0)  -->
<svg version="1.1" id="Layer_1" xmlns="http://www.w3.org/2000/svg" xmlns:xlink="http://www.w3.org/1999/xlink" x="0px" y="0px"
	 viewBox="0 0 512 512" style="enable-background:new 0 0 512 512;" xml:space="preserve">
<g>
	<g>
		<path d="M411.826,0H100.174c-9.217,0-16.696,7.473-16.696,16.696v50.087h345.043V16.696C428.522,7.473,421.043,0,411.826,0z"/>
	</g>
</g>
<g>
	<g>
		<path d="M83.478,100.174v244.87h345.043v-244.87H83.478z M289.391,300.522h-66.783c-9.217,0-16.696-7.473-16.696-16.696
			c0-9.223,7.479-16.696,16.696-16.696h66.783c9.217,0,16.696,7.473,16.696,16.696C306.087,293.049,298.608,300.522,289.391,300.522
			z M289.391,200.348h-16.696v16.696c0,9.223-7.479,16.696-16.696,16.696s-16.696-7.473-16.696-16.696v-16.696h-16.696
			c-9.217,0-16.696-7.473-16.696-16.696c0-9.223,7.479-16.696,16.696-16.696h16.696v-16.696c0-9.223,7.479-16.696,16.696-16.696
			s16.696,7.473,16.696,16.696v16.696h16.696c9.217,0,16.696,7.473,16.696,16.696C306.087,192.875,298.608,200.348,289.391,200.348z
			"/>
	</g>
</g>
<g>
	<g>
		<path d="M83.478,378.435v116.87c0,9.223,7.479,16.696,16.696,16.696h311.652c9.217,0,16.696-7.473,16.696-16.696v-116.87H83.478z
			 M256,445.217c-9.22,0-16.696-7.475-16.696-16.696s7.475-16.696,16.696-16.696s16.696,7.475,16.696,16.696
			S265.22,445.217,256,445.217z"/>
	</g>
</g>
<g>
</g>
<g>
</g>
<g>
</g>
<g>
</g>
<g>
</g>
<g>
</g>
<g>
</g>
<g>
</g>
<g>
</g>
<g>
</g>
<g>
</g>
<g>
</g>
<g>
</g>
<g>
</g>
<g>
</g>
</svg>
