<?xml version="1.0" encoding="iso-8859-1"?>
<!-- Generator: Adobe Illustrator 19.0.0, SVG Export Plug-In . SVG Version: 6.00 Build 0)  -->
<svg version="1.1" id="Layer_1" xmlns="http://www.w3.org/2000/svg" xmlns:xlink="http://www.w3.org/1999/xlink" x="0px" y="0px"
	 viewBox="0 0 512.001 512.001" style="enable-background:new 0 0 512.001 512.001;" xml:space="preserve">
<g>
	<g>
		<path d="M256.001,0.001c-112.667,0-208.506,73.197-242.624,174.511c51.65-41.098,141.082-68.35,242.624-68.35
			s190.975,27.253,242.624,68.35C464.505,73.197,368.668,0.001,256.001,0.001z"/>
	</g>
</g>
<g>
	<g>
		<path d="M256.001,405.84c-101.542,0-190.975-27.253-242.624-68.35c34.12,101.313,129.957,174.511,242.624,174.511
			s208.505-73.197,242.624-174.511C446.975,378.588,357.542,405.84,256.001,405.84z"/>
	</g>
</g>
<g>
	<g>
		<path d="M256.001,139.507C105.14,139.507,0,200.901,0,256.001c0,55.1,105.14,116.494,256.001,116.494
			s256.001-61.394,256.001-116.494S406.86,139.507,256.001,139.507z"/>
	</g>
</g>
<g>
</g>
<g>
</g>
<g>
</g>
<g>
</g>
<g>
</g>
<g>
</g>
<g>
</g>
<g>
</g>
<g>
</g>
<g>
</g>
<g>
</g>
<g>
</g>
<g>
</g>
<g>
</g>
<g>
</g>
</svg>
