<?xml version="1.0" encoding="iso-8859-1"?>
<!-- Generator: Adobe Illustrator 19.0.0, SVG Export Plug-In . SVG Version: 6.00 Build 0)  -->
<svg version="1.1" id="Layer_1" xmlns="http://www.w3.org/2000/svg" xmlns:xlink="http://www.w3.org/1999/xlink" x="0px" y="0px"
	 viewBox="0 0 512 512" style="enable-background:new 0 0 512 512;" xml:space="preserve">
<g>
	<g>
		<path d="M256,0C114.844,0,0,114.839,0,256s114.844,256,256,256s256-114.839,256-256S397.156,0,256,0z M389.594,160.257h-67.776
			L203.89,397.21c-2.772,5.566-8.469,8.947-14.688,8.947s-11.915-3.313-14.688-8.88l-62.264-124.579H89.007
			c-9.078,0-16.428-7.627-16.428-16.699s7.35-16.699,16.428-16.699h33.399c6.219,0,11.915,3.517,14.688,9.083l52.11,104.48
			l107.774-216.921c2.772-5.566,8.469-9.083,14.688-9.083h77.93c9.078,0,16.428,7.627,16.428,16.699
			S398.672,160.257,389.594,160.257z"/>
	</g>
</g>
<g>
</g>
<g>
</g>
<g>
</g>
<g>
</g>
<g>
</g>
<g>
</g>
<g>
</g>
<g>
</g>
<g>
</g>
<g>
</g>
<g>
</g>
<g>
</g>
<g>
</g>
<g>
</g>
<g>
</g>
</svg>
